<?xml version="1.0" encoding="utf-8"?>
<!-- Generator: Adobe Illustrator 22.1.0, SVG Export Plug-In . SVG Version: 6.00 Build 0)  -->
<svg version="1.1" xmlns="http://www.w3.org/2000/svg" xmlns:xlink="http://www.w3.org/1999/xlink" x="0px" y="0px"
	 viewBox="0 0 500 500" style="enable-background:new 0 0 500 500;" xml:space="preserve">
<style type="text/css">
	.st0{fill:#207FBC;}
</style>
<g id="BACKGROUND">
</g>
<g id="OBJECTS">
	<g>
		<path class="st0" d="M292.7,295.6h-60.2c-4.5,0-8.1,3.6-8.1,8.1c0,4.5,3.6,8.1,8.1,8.1h60.2c4.5,0,8.1-3.6,8.1-8.1
			C300.8,299.3,297.2,295.6,292.7,295.6z"/>
		<path class="st0" d="M246.8,343.5v4.4c0,5,4,9,9,9h13.5c5,0,9-4,9-9v-4.4c10.2-0.7,18.3-9.2,18.3-19.6h-68.2
			C228.5,334.4,236.6,342.8,246.8,343.5z"/>
		<path class="st0" d="M262.6,113.6c-44.9,0-81.3,36.4-81.3,81.3c0,18.9,6.5,36.3,17.4,50.2c9.6,12.2,18.8,25.5,26.6,39h74.6
			c7.9-13.5,16.9-26.6,26.6-39c10.9-13.8,17.4-31.2,17.4-50.1C343.9,150,307.5,113.6,262.6,113.6z M262.7,141.8
			c-28.9,0-52.3,23.5-52.3,52.3c0,4.5-3.6,8.1-8.1,8.1c-4.5,0-8.1-3.6-8.1-8.1c0-37.8,30.8-68.6,68.6-68.6c4.5,0,8.1,3.6,8.1,8.1
			C270.8,138.2,267.2,141.8,262.7,141.8z"/>
	</g>
</g>
<g id="DESIGNED_BY_FREEPIK">
</g>
</svg>
