<?xml version="1.0" encoding="utf-8"?>
<!-- Generator: Adobe Illustrator 22.1.0, SVG Export Plug-In . SVG Version: 6.00 Build 0)  -->
<svg version="1.1" xmlns="http://www.w3.org/2000/svg" xmlns:xlink="http://www.w3.org/1999/xlink" x="0px" y="0px"
	 viewBox="0 0 500 500" style="enable-background:new 0 0 500 500;" xml:space="preserve">
<style type="text/css">
	.st0{fill:#207FBC;}
</style>
<g id="BACKGROUND">
</g>
<g id="OBJECTS">
	<g>
		<path class="st0" d="M293.8,310.4l-87.9,34.1c-6.5,2.5-9.8,9.9-7.3,16.4c2.5,6.5,9.9,9.8,16.4,7.3l87.9-34.1
			c6.5-2.5,9.8-9.9,7.3-16.4C307.7,311.1,300.4,307.9,293.8,310.4z"/>
		<path class="st0" d="M253.9,406.4l2.5,6.5c2.8,7.3,11,10.9,18.3,8.1l19.7-7.6c7.3-2.8,10.9-11,8.1-18.3l-2.5-6.5
			c14.5-6.8,21.6-23.7,15.7-38.9l-99.6,38.6C222,403.4,238.6,411.1,253.9,406.4z"/>
		<path class="st0" d="M146.8,61.5C81.2,86.9,48.6,160.7,74,226.3c10.7,27.7,30.1,49.4,53.8,63.4c21,12.4,41.9,26.7,60.9,41.9
			l108.9-42.2c3.9-24.3,9.6-48.5,16.9-72c8.1-26.3,7.8-55.4-3-83.1C286.2,68.7,212.4,36.1,146.8,61.5z M163,102.6
			c-42.2,16.3-63.2,63.9-46.9,106.1c2.5,6.5-0.7,13.9-7.3,16.4c-6.6,2.5-13.9-0.7-16.4-7.3c-21.4-55.2,6.1-117.6,61.4-139
			c6.5-2.5,13.9,0.7,16.4,7.3C172.8,92.7,169.5,100.1,163,102.6z"/>
	</g>
</g>
<g id="DESIGNED_BY_FREEPIK">
</g>
</svg>
