<?xml version="1.0" encoding="utf-8"?>
<!-- Generator: Adobe Illustrator 22.1.0, SVG Export Plug-In . SVG Version: 6.00 Build 0)  -->
<svg version="1.1" xmlns="http://www.w3.org/2000/svg" xmlns:xlink="http://www.w3.org/1999/xlink" x="0px" y="0px"
	 viewBox="0 0 500 500" style="enable-background:new 0 0 500 500;" xml:space="preserve">
<style type="text/css">
	.st0{fill:none;stroke:#207FBC;stroke-width:15;stroke-miterlimit:10;}
	.st1{fill:#207FBC;}
	.st2{fill:#FFFFFF;}
	.st3{fill-rule:evenodd;clip-rule:evenodd;fill:#FFFFFF;}
</style>
<g id="BACKGROUND">
</g>
<g id="OBJECTS">
	<ellipse class="st0" cx="255.5" cy="260" rx="161.5" ry="125"/>
	<path class="st1" d="M134,233.2c0,17.2-13.3,31.3-30.2,32.7c-0.9,0.2-1.9,0.2-2.8,0.2c-2.5,0-4.9-0.2-7.2-0.8
		c-14.8-3.3-25.9-16.4-25.9-32.1c0-18.1,14.8-32.8,33.1-32.8C119.3,200.4,134,215,134,233.2z"/>
	<g>
		<path class="st2" d="M104.8,226.3c0.5-0.6,1.5-1,3-1c1.4,0,3,0.2,4.5,0.6l1.3-6.9c-2.6-0.9-5.4-1.2-8.2-1.2c-2.8,0-5,0.4-6.8,1.4
			c-1.8,1-3,2.1-3.7,3.7c-0.7,1.4-1,3.9-1,6.9v2.7h-5.5v7.9h5.5v24.7c2.3,0.5,4.7,0.8,7.2,0.8c0.9,0,1.9,0,2.8-0.2v-25.3h7.2v-7.9
			h-7.2v-2.5C103.8,228.2,104.1,227,104.8,226.3z"/>
	</g>
	<path class="st1" d="M276.7,135c0,11.6-9.4,21-21,21c-11.6,0-21-9.4-21-21c0-11.6,9.4-21,21-21C267.3,114,276.7,123.4,276.7,135z"
		/>
	<g>
		<path class="st3" d="M268.1,132c-1.4-5.8-6.4-9.8-12.4-9.9c-0.8,0-1.7,0.1-2.4,0.3c-8.5,1.7-12.8,11-8.7,18.6
			c0.1,0.2,0.1,0.4,0.1,0.6c-0.6,1.9-1.1,4-1.7,5.9c-0.1,0.3-0.1,0.3,0.2,0.3c2.1-0.6,4.1-1.1,6.2-1.6c0.2,0,0.3,0,0.5,0
			c2.7,1.3,5.4,1.7,8.4,1.2C265.2,146,269.8,138.9,268.1,132z M257.5,145.3c-0.6,0.1-1.2,0.2-1.5,0.1c-2.3,0-4.1-0.5-5.8-1.5
			c-0.2-0.1-0.4-0.2-0.7-0.1c-1.2,0.3-2.3,0.6-3.4,0.9c-0.2,0.1-0.3,0-0.2-0.2c0.3-1,0.6-2.1,0.9-3.2c0.1-0.3,0.1-0.5-0.1-0.8
			c-2.3-3.8-2.2-8.4,0.4-11.9c2.7-3.6,6.4-5.1,10.8-4.2c4.3,0.9,7.1,3.7,8.1,8C267.4,138.5,263.5,144.4,257.5,145.3z"/>
		<path class="st3" d="M259,141c-0.4,0-0.9,0-1.3-0.2c-2.9-0.9-5.1-2.6-6.9-5.1c-0.7-0.9-1.3-1.9-1.5-3c-0.3-1.3,0.1-2.5,1.1-3.4
			c0.3-0.3,1.3-0.5,1.7-0.3c0.1,0.1,0.2,0.2,0.3,0.3c0.4,0.9,0.7,1.8,1.1,2.6c0.1,0.2,0,0.4-0.1,0.5c-0.2,0.4-0.5,0.7-0.8,1.1
			c-0.2,0.2-0.2,0.4-0.1,0.7c1,1.7,2.5,3,4.4,3.7c0.3,0.1,0.5,0.1,0.7-0.1c0.3-0.4,0.6-0.8,1-1.2c0.2-0.3,0.4-0.3,0.7-0.2
			c0.6,0.3,1.2,0.6,1.8,0.9c0.2,0.1,0.3,0.1,0.4,0.2c0.6,0.3,0.6,0.4,0.6,1c-0.1,1.3-1.1,2-2.3,2.3C259.6,141,259.3,141,259,141z"/>
	</g>
	<path class="st1" d="M443.6,233.6c0,18.1-14.7,32.8-32.8,32.8c-18.1,0-32.8-14.7-32.8-32.8c0-18.2,14.7-32.8,32.8-32.8
		C428.9,200.7,443.6,215.4,443.6,233.6z"/>
	<g>
		<path class="st3" d="M390.9,246.9c3.1,0.2,6.2-0.3,9-1.6c1.3-0.5,2.4-1.2,3.6-2.2c-1.4,0-2.6-0.4-3.7-0.9c-1.9-1-3.3-2.5-4.1-4.6
			c-0.2-0.5-0.2-0.5,0.3-0.4c1.4,0.1,2.4,0.1,3.2-0.2c-0.7-0.3-1.5-0.4-2-0.8c-2.9-1.6-4.4-4.1-4.7-7.3c0-0.4,0.1-0.4,0.4-0.3
			c1,0.6,2.1,0.8,3.4,0.9c-0.5-0.5-1-0.9-1.5-1.3c-2.4-2.6-3-6.7-1.4-9.8c0.2-0.4,0.3-0.4,0.6-0.1c4,4.6,9,7.4,15.1,8.4
			c0.6,0.1,1.3,0.1,1.9,0.2c0.4,0.1,0.5-0.1,0.4-0.5c-0.6-3.6,1.1-7.2,4.3-9c3.3-1.9,7.5-1.3,10.2,1.3c0.3,0.3,0.6,0.3,0.9,0.2
			c1.6-0.4,3.1-1,4.6-1.8c0.1,0,0.2-0.1,0.4-0.2c-0.6,2-1.8,3.5-3.6,4.8c1.7-0.2,3.2-0.6,4.7-1.2c0,0.2-0.1,0.3-0.2,0.5
			c-1,1.4-2.2,2.6-3.6,3.7c-0.3,0.2-0.3,0.4-0.3,0.7c0.1,6.3-1.9,11.9-6,16.8c-3.8,4.5-8.6,7.1-14.4,8.1c-6.1,0.9-11.9-0.1-17.2-3.3
			C391.1,247,391,246.9,390.9,246.9z"/>
	</g>
	<path class="st1" d="M308.5,380.6c0,27.9-22.6,50.6-50.6,50.6c-27.9,0-50.6-22.7-50.6-50.6S230,330,257.9,330
		C285.9,330,308.5,352.7,308.5,380.6z"/>
	<g>
		<path class="st3" d="M278.1,353.3c-13.4,0-26.8,0-40.2,0c-4.8,0-7.3,2.5-7.3,7.3c0,6.6,0,13.3,0,20c0,6.6,0,13.4,0,20.1
			c0,4.6,2.5,7.2,7,7.2c13.5,0,27,0,40.5,0c4.7,0,7.2-2.5,7.2-7.2c0-13.4,0-26.8,0-40.2C285.3,355.8,282.7,353.3,278.1,353.3z
			 M273.6,359.5c5.4,0,5.4,0,5.4,5.4c0,5.3,0,5.3-5.3,5.3c-5.4,0-5.4,0-5.4-5.4C268.3,359.5,268.3,359.5,273.6,359.5z M258,370
			c5.7,0,10.6,4.9,10.5,10.6c0,5.8-4.9,10.7-10.7,10.6c-5.8-0.1-10.6-5-10.5-10.7C247.5,374.7,252.3,370,258,370z M279.1,398.4
			c0,2.5-0.7,3.3-3.3,3.3c-6,0-11.9,0-17.9,0c-5.9,0-11.9,0-17.8,0c-2.5,0-3.2-0.7-3.2-3.3c0-6.6,0-13.3-0.1-19.9
			c0-1.9,0.5-2.3,2.3-2.2c2.5,0.2,2.5,0.1,2.3,2.5c-1,8.5,4.9,16.6,13.2,18.3c8.6,1.7,17.2-3.5,19.5-11.7c0.7-2.6,0.9-5.3,0.4-7.9
			c-0.2-0.9,0-1.1,0.9-1.1c3.8-0.3,3.8-0.4,3.8,3.6C279.1,386,279.1,392.3,279.1,398.4z"/>
	</g>
</g>
<g id="DESIGNED_BY_FREEPIK">
</g>
</svg>
